<?xml version="1.0" encoding="UTF-8" standalone="no"?>
<!DOCTYPE svg PUBLIC "-//W3C//DTD SVG 1.1//EN" "http://www.w3.org/Graphics/SVG/1.1/DTD/svg11.dtd">
<!-- Created with Vectornator (http://vectornator.io/) -->
<svg height="100%" stroke-miterlimit="10" style="fill-rule:nonzero;clip-rule:evenodd;stroke-linecap:round;stroke-linejoin:round;" version="1.1" viewBox="0 0 1080 1080" width="100%" xml:space="preserve" xmlns="http://www.w3.org/2000/svg" xmlns:vectornator="http://vectornator.io" xmlns:xlink="http://www.w3.org/1999/xlink">
<defs/>
<g id="Untitled" vectornator:layerName="Untitled">
<path d="M40 540C40 263.858 263.858 40 540 40C816.142 40 1040 263.858 1040 540C1040 816.142 816.142 1040 540 1040C263.858 1040 40 816.142 40 540Z" fill="none" opacity="1" stroke="#ffe600" stroke-linecap="butt" stroke-linejoin="miter" stroke-width="80"/>
<path d="M849.677 801C837.382 783.684 823.628 767.388 808.539 752.299C773.253 717.013 731.362 689.023 685.258 669.926C639.155 650.829 589.741 641 539.839 641C489.936 641 440.523 650.829 394.419 669.926C348.315 689.023 306.424 717.013 271.138 752.299C256.05 767.388 242.295 783.684 230 801L849.677 801Z" fill="#ffe600" fill-rule="evenodd" opacity="1" stroke="none"/>
<path d="M187 432C187 353.576 250.576 290 329 290C407.424 290 471 353.576 471 432C471 510.424 407.424 574 329 574C250.576 574 187 510.424 187 432Z" fill="#ffe600" fill-rule="nonzero" opacity="1" stroke="none"/>
<path d="M608 432C608 353.576 671.576 290 750 290C828.424 290 892 353.576 892 432C892 510.424 828.424 574 750 574C671.576 574 608 510.424 608 432Z" fill="#ffe600" fill-rule="nonzero" opacity="1" stroke="none"/>
</g>
</svg>
