<?xml version="1.0" encoding="UTF-8" standalone="no"?>
<!DOCTYPE svg PUBLIC "-//W3C//DTD SVG 1.1//EN" "http://www.w3.org/Graphics/SVG/1.1/DTD/svg11.dtd">
<!-- Created with Vectornator (http://vectornator.io/) -->
<svg height="100%" stroke-miterlimit="10" style="fill-rule:nonzero;clip-rule:evenodd;stroke-linecap:round;stroke-linejoin:round;" version="1.1" viewBox="0 0 1080 1080" width="100%" xml:space="preserve" xmlns="http://www.w3.org/2000/svg" xmlns:vectornator="http://vectornator.io" xmlns:xlink="http://www.w3.org/1999/xlink">
<defs/>
<g id="Untitled" vectornator:layerName="Untitled">
<path d="M40 540C40 263.858 263.858 40 540 40C816.142 40 1040 263.858 1040 540C1040 816.142 816.142 1040 540 1040C263.858 1040 40 816.142 40 540Z" fill="none" opacity="1" stroke="#00d1ff" stroke-linecap="butt" stroke-linejoin="miter" stroke-width="80"/>
<path d="M849.677 801C837.382 783.684 823.628 767.388 808.539 752.299C773.253 717.013 731.362 689.023 685.258 669.926C639.155 650.829 589.741 641 539.839 641C489.936 641 440.523 650.829 394.419 669.926C348.315 689.023 306.424 717.013 271.138 752.299C256.05 767.388 242.295 783.684 230 801L849.677 801Z" fill="#00d1ff" fill-rule="evenodd" opacity="1" stroke="none"/>
<path d="M187 432L187 370L201.214 370L267 370L267 432L267 434.62L267.054 434.62C268.427 467.646 295.636 494 329 494C362.364 494 389.573 467.646 390.946 434.62L391 434.62L391 432L391 370L456.786 370L471 370L471 432L471 435L470.969 435C469.372 512.039 406.422 574 329 574C251.578 574 188.628 512.039 187.031 435L187 435L187 432Z" fill="#00d1ff" fill-rule="evenodd" opacity="1" stroke="none"/>
<path d="M608 432L608 370L622.214 370L688 370L688 432L688 434.62L688.054 434.62C689.427 467.646 716.636 494 750 494C783.364 494 810.573 467.646 811.946 434.62L812 434.62L812 432L812 370L877.786 370L892 370L892 432L892 435L891.969 435C890.372 512.039 827.422 574 750 574C672.578 574 609.628 512.039 608.031 435L608 435L608 432Z" fill="#00d1ff" fill-rule="evenodd" opacity="1" stroke="none"/>
</g>
</svg>
