<?xml version="1.0" encoding="UTF-8" standalone="no"?>
<!DOCTYPE svg PUBLIC "-//W3C//DTD SVG 1.1//EN" "http://www.w3.org/Graphics/SVG/1.1/DTD/svg11.dtd">
<!-- Created with Vectornator (http://vectornator.io/) -->
<svg height="100%" stroke-miterlimit="10" style="fill-rule:nonzero;clip-rule:evenodd;stroke-linecap:round;stroke-linejoin:round;" version="1.1" viewBox="0 0 1024 1024" width="100%" xml:space="preserve" xmlns="http://www.w3.org/2000/svg" xmlns:vectornator="http://vectornator.io" xmlns:xlink="http://www.w3.org/1999/xlink">
<defs/>
<g id="Untitled" vectornator:layerName="Untitled">
<path d="M512 0C229.268 2.19717e-05 0 229.268 0 512C2.19717e-05 794.732 229.268 1024 512 1024C794.732 1024 1024 794.732 1024 512C1024 229.268 794.732 0 512 0ZM200.973 272.351L447.743 414.905L392.226 510.92L392.024 510.819C374.097 540.41 341.597 560.159 304.446 560.159C247.964 560.159 202.053 514.389 202.053 457.8C202.053 439.873 206.575 423.113 214.675 408.426L145.456 368.467L200.973 272.351ZM822.386 272.452L877.902 368.568L808.549 408.662C816.541 423.241 821.205 440.075 821.205 458.002C821.205 514.484 775.401 560.395 718.811 560.395C681.661 560.396 649.161 540.612 631.234 511.021L630.998 511.123L575.515 415.007L822.386 272.452ZM511.899 615.473C562.981 615.473 613.502 625.49 660.696 645.037C707.89 664.584 750.771 693.23 786.95 729.408C802.393 744.852 816.433 761.578 829.068 779.289L727.012 779.289C718.481 770.433 708.97 762.124 698.495 754.349C674.088 736.205 644.942 721.957 612.976 712.129C580.901 702.41 546.667 697.314 512 697.314C477.333 697.314 442.991 702.302 411.024 712.129C379.058 721.957 350.02 736.313 325.505 754.349C315.03 762.124 305.519 770.433 296.988 779.289L194.594 779.289C207.23 761.47 221.269 744.852 236.713 729.408C272.891 693.23 315.772 664.584 362.966 645.037C410.16 625.49 460.817 615.473 511.899 615.473Z" fill="#ff003d" fill-rule="nonzero" opacity="1" stroke="#ff003d" stroke-linecap="butt" stroke-linejoin="miter" stroke-width="0"/>
</g>
</svg>
