<svg width="112" height="41" viewBox="0 0 112 41" fill="none" xmlns="http://www.w3.org/2000/svg">
<path d="M11.9489 27V13.9091H15.4091V16.2188H15.5625C15.8352 15.4517 16.2898 14.8466 16.9261 14.4034C17.5625 13.9602 18.3239 13.7386 19.2102 13.7386C20.108 13.7386 20.8722 13.9631 21.5028 14.4119C22.1335 14.8551 22.554 15.4574 22.7642 16.2188H22.9006C23.1676 15.4688 23.6506 14.8693 24.3494 14.4205C25.054 13.9659 25.8864 13.7386 26.8466 13.7386C28.0682 13.7386 29.0597 14.1278 29.821 14.9062C30.5881 15.679 30.9716 16.7756 30.9716 18.196V27H27.3494V18.9119C27.3494 18.1847 27.1563 17.6392 26.7699 17.2756C26.3835 16.9119 25.9006 16.7301 25.321 16.7301C24.6619 16.7301 24.1477 16.9403 23.7784 17.3608C23.4091 17.7756 23.2244 18.3239 23.2244 19.0057V27H19.7045V18.8352C19.7045 18.1932 19.5199 17.6818 19.1506 17.3011C18.7869 16.9205 18.3068 16.7301 17.7102 16.7301C17.3068 16.7301 16.9432 16.8324 16.6193 17.0369C16.3011 17.2358 16.0483 17.517 15.8608 17.8807C15.6733 18.2386 15.5795 18.6591 15.5795 19.142V27H11.9489ZM39.7543 27.2557C38.4304 27.2557 37.2855 26.9744 36.3196 26.4119C35.3594 25.8437 34.6179 25.054 34.0952 24.0426C33.5724 23.0256 33.3111 21.8466 33.3111 20.5057C33.3111 19.1534 33.5724 17.9716 34.0952 16.9602C34.6179 15.9432 35.3594 15.1534 36.3196 14.5909C37.2855 14.0227 38.4304 13.7386 39.7543 13.7386C41.0781 13.7386 42.2202 14.0227 43.1804 14.5909C44.1463 15.1534 44.8906 15.9432 45.4134 16.9602C45.9361 17.9716 46.1974 19.1534 46.1974 20.5057C46.1974 21.8466 45.9361 23.0256 45.4134 24.0426C44.8906 25.054 44.1463 25.8437 43.1804 26.4119C42.2202 26.9744 41.0781 27.2557 39.7543 27.2557ZM39.7713 24.4432C40.3736 24.4432 40.8764 24.2727 41.2798 23.9318C41.6832 23.5852 41.9872 23.1136 42.1918 22.517C42.402 21.9205 42.5071 21.2415 42.5071 20.4801C42.5071 19.7188 42.402 19.0398 42.1918 18.4432C41.9872 17.8466 41.6832 17.375 41.2798 17.0284C40.8764 16.6818 40.3736 16.5085 39.7713 16.5085C39.1634 16.5085 38.652 16.6818 38.2372 17.0284C37.8281 17.375 37.5185 17.8466 37.3082 18.4432C37.1037 19.0398 37.0014 19.7188 37.0014 20.4801C37.0014 21.2415 37.1037 21.9205 37.3082 22.517C37.5185 23.1136 37.8281 23.5852 38.2372 23.9318C38.652 24.2727 39.1634 24.4432 39.7713 24.4432ZM54.473 27.2557C53.1491 27.2557 52.0043 26.9744 51.0384 26.4119C50.0781 25.8437 49.3366 25.054 48.8139 24.0426C48.2912 23.0256 48.0298 21.8466 48.0298 20.5057C48.0298 19.1534 48.2912 17.9716 48.8139 16.9602C49.3366 15.9432 50.0781 15.1534 51.0384 14.5909C52.0043 14.0227 53.1491 13.7386 54.473 13.7386C55.7969 13.7386 56.9389 14.0227 57.8991 14.5909C58.8651 15.1534 59.6094 15.9432 60.1321 16.9602C60.6548 17.9716 60.9162 19.1534 60.9162 20.5057C60.9162 21.8466 60.6548 23.0256 60.1321 24.0426C59.6094 25.054 58.8651 25.8437 57.8991 26.4119C56.9389 26.9744 55.7969 27.2557 54.473 27.2557ZM54.4901 24.4432C55.0923 24.4432 55.5952 24.2727 55.9986 23.9318C56.402 23.5852 56.706 23.1136 56.9105 22.517C57.1207 21.9205 57.2259 21.2415 57.2259 20.4801C57.2259 19.7188 57.1207 19.0398 56.9105 18.4432C56.706 17.8466 56.402 17.375 55.9986 17.0284C55.5952 16.6818 55.0923 16.5085 54.4901 16.5085C53.8821 16.5085 53.3707 16.6818 52.956 17.0284C52.5469 17.375 52.2372 17.8466 52.027 18.4432C51.8224 19.0398 51.7202 19.7188 51.7202 20.4801C51.7202 21.2415 51.8224 21.9205 52.027 22.517C52.2372 23.1136 52.5469 23.5852 52.956 23.9318C53.3707 24.2727 53.8821 24.4432 54.4901 24.4432ZM66.9077 19.4318V27H63.277V13.9091H66.7372V16.2188H66.8906C67.1804 15.4574 67.6662 14.8551 68.348 14.4119C69.0298 13.9631 69.8565 13.7386 70.8281 13.7386C71.7372 13.7386 72.5298 13.9375 73.206 14.3352C73.8821 14.733 74.4077 15.3011 74.7827 16.0398C75.1577 16.7727 75.3452 17.6477 75.3452 18.6648V27H71.7145V19.3125C71.7202 18.5114 71.5156 17.8864 71.1009 17.4375C70.6861 16.983 70.1151 16.7557 69.3878 16.7557C68.8991 16.7557 68.4673 16.8608 68.0923 17.071C67.723 17.2812 67.4332 17.5881 67.223 17.9915C67.0185 18.3892 66.9134 18.8693 66.9077 19.4318ZM81.9396 27.2472C81.1044 27.2472 80.3601 27.1023 79.7067 26.8125C79.0533 26.517 78.5362 26.0824 78.1555 25.5085C77.7805 24.929 77.593 24.2074 77.593 23.3438C77.593 22.6165 77.7266 22.0057 77.9936 21.5114C78.2607 21.017 78.6243 20.6193 79.0845 20.3182C79.5447 20.017 80.0675 19.7898 80.6527 19.6364C81.2436 19.483 81.8629 19.375 82.5107 19.3125C83.272 19.233 83.8857 19.1591 84.3516 19.0909C84.8175 19.017 85.1555 18.9091 85.3658 18.767C85.576 18.625 85.6811 18.4148 85.6811 18.1364V18.0852C85.6811 17.5455 85.5107 17.1278 85.1697 16.8324C84.8345 16.5369 84.3572 16.3892 83.7379 16.3892C83.0845 16.3892 82.5646 16.5341 82.1783 16.8239C81.7919 17.108 81.5362 17.4659 81.4112 17.8977L78.0533 17.625C78.2237 16.8295 78.5589 16.142 79.0589 15.5625C79.5589 14.9773 80.2038 14.5284 80.9936 14.2159C81.7891 13.8977 82.7095 13.7386 83.755 13.7386C84.4822 13.7386 85.1783 13.8239 85.843 13.9943C86.5135 14.1648 87.1072 14.429 87.6243 14.7869C88.147 15.1449 88.5589 15.6051 88.8601 16.1676C89.1612 16.7244 89.3118 17.392 89.3118 18.1705V27H85.8686V25.1847H85.7663C85.5561 25.5938 85.2749 25.9545 84.9226 26.267C84.5703 26.5739 84.147 26.8153 83.6527 26.9915C83.1584 27.1619 82.5874 27.2472 81.9396 27.2472ZM82.9794 24.7415C83.5135 24.7415 83.9851 24.6364 84.3942 24.4261C84.8033 24.2102 85.1243 23.9205 85.3572 23.5568C85.5902 23.1932 85.7067 22.7812 85.7067 22.321V20.9318C85.593 21.0057 85.4368 21.0739 85.2379 21.1364C85.0447 21.1932 84.826 21.2472 84.5817 21.2983C84.3374 21.3437 84.093 21.3864 83.8487 21.4261C83.6044 21.4602 83.3828 21.4915 83.1839 21.5199C82.7578 21.5824 82.3857 21.6818 82.0675 21.8182C81.7493 21.9545 81.5021 22.1392 81.326 22.3722C81.1499 22.5994 81.0618 22.8835 81.0618 23.2244C81.0618 23.7188 81.2408 24.0966 81.5987 24.358C81.9624 24.6136 82.4226 24.7415 82.9794 24.7415ZM92.1286 27V13.9091H95.6484V16.1932H95.7848C96.0234 15.3807 96.424 14.767 96.9865 14.3523C97.549 13.9318 98.1967 13.7216 98.9297 13.7216C99.1115 13.7216 99.3075 13.733 99.5178 13.7557C99.728 13.7784 99.9126 13.8097 100.072 13.8494V17.071C99.9013 17.0199 99.6655 16.9744 99.3643 16.9347C99.0632 16.8949 98.7876 16.875 98.5376 16.875C98.0036 16.875 97.5263 16.9915 97.1058 17.2244C96.6911 17.4517 96.3615 17.7699 96.1172 18.179C95.8786 18.5881 95.7592 19.0597 95.7592 19.5938V27H92.1286Z" fill="white"/>
<rect x="2.5" y="2.5" width="107" height="36" rx="12.5" stroke="white" stroke-width="5"/>
</svg>
