<?xml version="1.0" encoding="utf-8"?>
<!-- Generator: Adobe Illustrator 26.2.1, SVG Export Plug-In . SVG Version: 6.00 Build 0)  -->
<svg version="1.1" id="Layer_1" xmlns:vectornator="http://vectornator.io"
	 xmlns="http://www.w3.org/2000/svg" xmlns:xlink="http://www.w3.org/1999/xlink" x="0px" y="0px" viewBox="0 0 1024 1024"
	 style="enable-background:new 0 0 1024 1024;" xml:space="preserve">
<style type="text/css">
	.st0{fill:none;stroke:#FF003D;stroke-width:75.8519;stroke-miterlimit:9.4815;}
	.st1{fill:#FF003D;}
</style>
<path class="st0" d="M37.9,512C37.9,250.2,250.2,37.9,512,37.9S986.1,250.2,986.1,512S773.8,986.1,512,986.1S37.9,773.8,37.9,512z"
	/>
<path class="st1" d="M511.9,607.8c-47.3,0-94.2,9.3-137.9,27.4c-43.7,18.1-83.4,44.6-116.9,78.1c-14.3,14.3-27.3,29.7-39,46.2h94.8
	c7.9-8.2,16.7-15.9,26.4-23.1c22.7-16.7,49.6-30,79.2-39.1c29.6-9.1,61.4-13.7,93.5-13.7s63.8,4.7,93.5,13.7
	c29.6,9.1,56.6,22.3,79.2,39.1c9.7,7.2,18.5,14.9,26.4,23.1h94.5c-11.7-16.4-24.7-31.9-39-46.2c-33.5-33.5-73.2-60-116.9-78.1
	C606,617.1,559.2,607.8,511.9,607.8z"/>
<path class="st1" d="M850.8,379.2l-51.4-89l-228.6,132l51.4,89l0.2-0.1c16.6,27.4,46.7,45.7,81.1,45.7c52.4,0,94.8-42.5,94.8-94.8
	c0-16.6-4.3-32.2-11.7-45.7L850.8,379.2z"/>
<path class="st1" d="M452.5,422.1L224,290.1l-51.4,89l64.1,37c-7.5,13.6-11.7,29.1-11.7,45.7c0,52.4,42.5,94.8,94.8,94.8
	c34.4,0,64.5-18.3,81.1-45.7l0.2,0.1L452.5,422.1z"/>
</svg>
