<?xml version="1.0" encoding="UTF-8" standalone="no"?>
<!DOCTYPE svg PUBLIC "-//W3C//DTD SVG 1.1//EN" "http://www.w3.org/Graphics/SVG/1.1/DTD/svg11.dtd">
<!-- Created with Vectornator (http://vectornator.io/) -->
<svg height="100%" stroke-miterlimit="10" style="fill-rule:nonzero;clip-rule:evenodd;stroke-linecap:round;stroke-linejoin:round;" version="1.1" viewBox="0 0 1024 1024" width="100%" xml:space="preserve" xmlns="http://www.w3.org/2000/svg" xmlns:vectornator="http://vectornator.io" xmlns:xlink="http://www.w3.org/1999/xlink">
<defs/>
<g id="Untitled" vectornator:layerName="Untitled">
<path d="M512 1.13687e-13C229.268 0.000107112 0 229.268 0 512C0.000107112 794.732 229.268 1024 512 1024C794.732 1024 1024 794.732 1024 512C1024 229.268 794.732 1.13687e-13 512 1.13687e-13ZM150.552 337.924L165.131 337.924L232.495 337.924L232.495 401.406L232.495 404.106L232.629 404.106C234.032 437.909 261.882 464.92 296.009 464.92C330.136 464.92 357.984 437.909 359.389 404.106L359.523 404.106L359.523 401.406L359.523 337.924L426.886 337.924L441.466 337.924L441.466 401.406L441.466 404.443C439.845 483.28 375.379 546.76 296.11 546.761C216.842 546.761 152.375 483.388 150.755 404.443L150.755 401.406L150.552 401.406L150.552 337.924ZM581.657 337.924L596.236 337.924L663.632 337.924L663.632 401.406L663.632 404.106L663.734 404.106C665.137 437.909 692.987 464.92 727.114 464.92C761.241 464.92 789.123 437.909 790.527 404.106L790.628 404.106L790.628 401.406L790.628 337.924L858.024 337.924L872.603 337.924L872.603 401.406L872.603 404.443C870.983 483.28 806.518 546.76 727.248 546.761C647.979 546.761 583.277 483.388 581.657 404.443L581.657 401.406L581.657 337.924ZM511.797 615.473C562.88 615.474 613.502 625.489 660.697 645.037C707.89 664.583 750.771 693.229 786.95 729.408C802.393 744.852 816.433 761.577 829.068 779.289L194.493 779.289C207.129 761.577 221.168 744.852 236.611 729.408C272.79 693.23 315.671 664.585 362.865 645.037C410.059 625.489 460.716 615.473 511.797 615.473Z" fill="#00d1ff" fill-rule="nonzero" opacity="1" stroke="#00d1ff" stroke-linecap="butt" stroke-linejoin="miter" stroke-width="0"/>
</g>
</svg>
