<?xml version="1.0" encoding="UTF-8" standalone="no"?>
<!DOCTYPE svg PUBLIC "-//W3C//DTD SVG 1.1//EN" "http://www.w3.org/Graphics/SVG/1.1/DTD/svg11.dtd">
<!-- Created with Vectornator (http://vectornator.io/) -->
<svg height="100%" stroke-miterlimit="10" style="fill-rule:nonzero;clip-rule:evenodd;stroke-linecap:round;stroke-linejoin:round;" version="1.1" viewBox="0 0 1024 1024" width="100%" xml:space="preserve" xmlns="http://www.w3.org/2000/svg" xmlns:vectornator="http://vectornator.io" xmlns:xlink="http://www.w3.org/1999/xlink">
<defs/>
<g id="Untitled" vectornator:layerName="Untitled">
<path d="M512 0C229.268 0.000107112 3.41061e-13 229.268 3.41061e-13 512C0.000107112 794.732 229.268 1024 512 1024C794.732 1024 1024 794.732 1024 512C1024 229.268 794.732 0 512 0ZM150.552 337.924L165.131 337.924L232.495 337.924L232.495 401.406L232.495 404.106L232.629 404.106C234.032 437.909 261.882 464.92 296.009 464.92C330.136 464.92 357.984 437.909 359.389 404.106L359.523 404.106L359.523 401.406L359.523 337.924L426.886 337.924L441.466 337.924L441.466 401.406L441.466 404.443C439.845 483.28 375.379 546.76 296.11 546.761C216.842 546.761 152.375 483.388 150.755 404.443L150.755 401.406L150.552 401.406L150.552 337.924ZM581.657 337.924L596.236 337.924L663.632 337.924L663.632 401.406L663.632 404.106L663.734 404.106C665.137 437.909 692.986 464.92 727.114 464.92C761.241 464.92 789.123 437.909 790.527 404.106L790.628 404.106L790.628 401.406L790.628 337.924L858.024 337.924L872.603 337.924L872.603 401.406L872.603 404.443C870.983 483.28 806.518 546.76 727.248 546.761C647.979 546.761 583.277 483.388 581.657 404.443L581.657 401.406L581.657 337.924ZM150.215 655.297L873.683 655.297C872.927 657.132 872.178 658.996 871.422 660.831C860.191 687.831 846.017 713.411 829.17 737.17L194.696 737.17C177.849 713.411 163.708 687.831 152.476 660.831C151.72 658.996 150.971 657.132 150.215 655.297Z" fill="#00d1ff" fill-rule="nonzero" opacity="1" stroke="#00d1ff" stroke-linecap="butt" stroke-linejoin="miter" stroke-width="0"/>
</g>
</svg>
