<svg width="90" height="15" viewBox="0 0 90 15" fill="none" xmlns="http://www.w3.org/2000/svg">
<path d="M0.948864 14V0.909091H4.40909V3.21875H4.5625C4.83523 2.4517 5.28977 1.84659 5.92614 1.40341C6.5625 0.960227 7.32386 0.738636 8.21023 0.738636C9.10795 0.738636 9.87216 0.963068 10.5028 1.41193C11.1335 1.85511 11.554 2.45739 11.7642 3.21875H11.9006C12.1676 2.46875 12.6506 1.86932 13.3494 1.42045C14.054 0.965909 14.8864 0.738636 15.8466 0.738636C17.0682 0.738636 18.0597 1.12784 18.821 1.90625C19.5881 2.67898 19.9716 3.77557 19.9716 5.19602V14H16.3494V5.91193C16.3494 5.18466 16.1563 4.6392 15.7699 4.27557C15.3835 3.91193 14.9006 3.73011 14.321 3.73011C13.6619 3.73011 13.1477 3.94034 12.7784 4.3608C12.4091 4.77557 12.2244 5.32386 12.2244 6.00568V14H8.70455V5.83523C8.70455 5.19318 8.51989 4.68182 8.15057 4.30114C7.78693 3.92045 7.30682 3.73011 6.71023 3.73011C6.30682 3.73011 5.94318 3.83239 5.61932 4.03693C5.30114 4.2358 5.0483 4.51705 4.8608 4.88068C4.6733 5.23864 4.57955 5.65909 4.57955 6.14205V14H0.948864ZM28.7543 14.2557C27.4304 14.2557 26.2855 13.9744 25.3196 13.4119C24.3594 12.8437 23.6179 12.054 23.0952 11.0426C22.5724 10.0256 22.3111 8.84659 22.3111 7.50568C22.3111 6.15341 22.5724 4.97159 23.0952 3.96023C23.6179 2.94318 24.3594 2.15341 25.3196 1.59091C26.2855 1.02273 27.4304 0.738636 28.7543 0.738636C30.0781 0.738636 31.2202 1.02273 32.1804 1.59091C33.1463 2.15341 33.8906 2.94318 34.4134 3.96023C34.9361 4.97159 35.1974 6.15341 35.1974 7.50568C35.1974 8.84659 34.9361 10.0256 34.4134 11.0426C33.8906 12.054 33.1463 12.8437 32.1804 13.4119C31.2202 13.9744 30.0781 14.2557 28.7543 14.2557ZM28.7713 11.4432C29.3736 11.4432 29.8764 11.2727 30.2798 10.9318C30.6832 10.5852 30.9872 10.1136 31.1918 9.51705C31.402 8.92045 31.5071 8.24148 31.5071 7.48011C31.5071 6.71875 31.402 6.03977 31.1918 5.44318C30.9872 4.84659 30.6832 4.375 30.2798 4.02841C29.8764 3.68182 29.3736 3.50852 28.7713 3.50852C28.1634 3.50852 27.652 3.68182 27.2372 4.02841C26.8281 4.375 26.5185 4.84659 26.3082 5.44318C26.1037 6.03977 26.0014 6.71875 26.0014 7.48011C26.0014 8.24148 26.1037 8.92045 26.3082 9.51705C26.5185 10.1136 26.8281 10.5852 27.2372 10.9318C27.652 11.2727 28.1634 11.4432 28.7713 11.4432ZM43.473 14.2557C42.1491 14.2557 41.0043 13.9744 40.0384 13.4119C39.0781 12.8437 38.3366 12.054 37.8139 11.0426C37.2912 10.0256 37.0298 8.84659 37.0298 7.50568C37.0298 6.15341 37.2912 4.97159 37.8139 3.96023C38.3366 2.94318 39.0781 2.15341 40.0384 1.59091C41.0043 1.02273 42.1491 0.738636 43.473 0.738636C44.7969 0.738636 45.9389 1.02273 46.8991 1.59091C47.8651 2.15341 48.6094 2.94318 49.1321 3.96023C49.6548 4.97159 49.9162 6.15341 49.9162 7.50568C49.9162 8.84659 49.6548 10.0256 49.1321 11.0426C48.6094 12.054 47.8651 12.8437 46.8991 13.4119C45.9389 13.9744 44.7969 14.2557 43.473 14.2557ZM43.4901 11.4432C44.0923 11.4432 44.5952 11.2727 44.9986 10.9318C45.402 10.5852 45.706 10.1136 45.9105 9.51705C46.1207 8.92045 46.2259 8.24148 46.2259 7.48011C46.2259 6.71875 46.1207 6.03977 45.9105 5.44318C45.706 4.84659 45.402 4.375 44.9986 4.02841C44.5952 3.68182 44.0923 3.50852 43.4901 3.50852C42.8821 3.50852 42.3707 3.68182 41.956 4.02841C41.5469 4.375 41.2372 4.84659 41.027 5.44318C40.8224 6.03977 40.7202 6.71875 40.7202 7.48011C40.7202 8.24148 40.8224 8.92045 41.027 9.51705C41.2372 10.1136 41.5469 10.5852 41.956 10.9318C42.3707 11.2727 42.8821 11.4432 43.4901 11.4432ZM55.9077 6.43182V14H52.277V0.909091H55.7372V3.21875H55.8906C56.1804 2.45739 56.6662 1.85511 57.348 1.41193C58.0298 0.963068 58.8565 0.738636 59.8281 0.738636C60.7372 0.738636 61.5298 0.9375 62.206 1.33523C62.8821 1.73295 63.4077 2.30114 63.7827 3.03977C64.1577 3.77273 64.3452 4.64773 64.3452 5.66477V14H60.7145V6.3125C60.7202 5.51136 60.5156 4.88636 60.1009 4.4375C59.6861 3.98295 59.1151 3.75568 58.3878 3.75568C57.8991 3.75568 57.4673 3.8608 57.0923 4.07102C56.723 4.28125 56.4332 4.58807 56.223 4.99148C56.0185 5.3892 55.9134 5.86932 55.9077 6.43182ZM70.9396 14.2472C70.1044 14.2472 69.3601 14.1023 68.7067 13.8125C68.0533 13.517 67.5362 13.0824 67.1555 12.5085C66.7805 11.929 66.593 11.2074 66.593 10.3438C66.593 9.61648 66.7266 9.00568 66.9936 8.51136C67.2607 8.01705 67.6243 7.61932 68.0845 7.31818C68.5447 7.01705 69.0675 6.78977 69.6527 6.63636C70.2436 6.48295 70.8629 6.375 71.5107 6.3125C72.272 6.23295 72.8857 6.15909 73.3516 6.09091C73.8175 6.01705 74.1555 5.90909 74.3658 5.76705C74.576 5.625 74.6811 5.41477 74.6811 5.13636V5.08523C74.6811 4.54545 74.5107 4.12784 74.1697 3.83239C73.8345 3.53693 73.3572 3.3892 72.7379 3.3892C72.0845 3.3892 71.5646 3.53409 71.1783 3.82386C70.7919 4.10795 70.5362 4.46591 70.4112 4.89773L67.0533 4.625C67.2237 3.82955 67.5589 3.14205 68.0589 2.5625C68.5589 1.97727 69.2038 1.52841 69.9936 1.21591C70.7891 0.897727 71.7095 0.738636 72.755 0.738636C73.4822 0.738636 74.1783 0.823864 74.843 0.994318C75.5135 1.16477 76.1072 1.42898 76.6243 1.78693C77.147 2.14489 77.5589 2.60511 77.8601 3.16761C78.1612 3.72443 78.3118 4.39205 78.3118 5.17045V14H74.8686V12.1847H74.7663C74.5561 12.5938 74.2749 12.9545 73.9226 13.267C73.5703 13.5739 73.147 13.8153 72.6527 13.9915C72.1584 14.1619 71.5874 14.2472 70.9396 14.2472ZM71.9794 11.7415C72.5135 11.7415 72.9851 11.6364 73.3942 11.4261C73.8033 11.2102 74.1243 10.9205 74.3572 10.5568C74.5902 10.1932 74.7067 9.78125 74.7067 9.32102V7.93182C74.593 8.00568 74.4368 8.07386 74.2379 8.13636C74.0447 8.19318 73.826 8.24716 73.5817 8.2983C73.3374 8.34375 73.093 8.38636 72.8487 8.42614C72.6044 8.46023 72.3828 8.49148 72.1839 8.51989C71.7578 8.58239 71.3857 8.68182 71.0675 8.81818C70.7493 8.95455 70.5021 9.1392 70.326 9.37216C70.1499 9.59943 70.0618 9.88352 70.0618 10.2244C70.0618 10.7188 70.2408 11.0966 70.5987 11.358C70.9624 11.6136 71.4226 11.7415 71.9794 11.7415ZM81.1286 14V0.909091H84.6484V3.19318H84.7848C85.0234 2.38068 85.424 1.76705 85.9865 1.35227C86.549 0.931818 87.1967 0.721591 87.9297 0.721591C88.1115 0.721591 88.3075 0.732954 88.5178 0.755681C88.728 0.778409 88.9126 0.809659 89.0717 0.849431V4.07102C88.9013 4.01989 88.6655 3.97443 88.3643 3.93466C88.0632 3.89489 87.7876 3.875 87.5376 3.875C87.0036 3.875 86.5263 3.99148 86.1058 4.22443C85.6911 4.4517 85.3615 4.76989 85.1172 5.17898C84.8786 5.58807 84.7592 6.05966 84.7592 6.59375V14H81.1286Z" fill="white"/>
</svg>
