<svg width="43" height="19" viewBox="0 0 43 19" fill="none" xmlns="http://www.w3.org/2000/svg">
<path d="M4.04581 18.4091C3.58558 18.4091 3.15376 18.3722 2.75036 18.2983C2.35263 18.2301 2.02308 18.142 1.76172 18.0341L2.5799 15.3239C3.00604 15.4545 3.38956 15.5256 3.73047 15.5369C4.07706 15.5483 4.37536 15.4688 4.62536 15.2983C4.88104 15.1278 5.08842 14.8381 5.24751 14.429L5.46058 13.875L0.76456 0.409091H4.58274L7.29297 10.0227H7.42933L10.1651 0.409091H14.0089L8.92081 14.9148C8.67649 15.6193 8.34411 16.233 7.92365 16.7557C7.50888 17.2841 6.98331 17.6903 6.34695 17.9744C5.71058 18.2642 4.94354 18.4091 4.04581 18.4091ZM21.3597 13.7557C20.0359 13.7557 18.891 13.4744 17.9251 12.9119C16.9648 12.3437 16.2234 11.554 15.7006 10.5426C15.1779 9.52557 14.9165 8.34659 14.9165 7.00568C14.9165 5.65341 15.1779 4.47159 15.7006 3.46023C16.2234 2.44318 16.9648 1.65341 17.9251 1.09091C18.891 0.522727 20.0359 0.238636 21.3597 0.238636C22.6836 0.238636 23.8256 0.522727 24.7859 1.09091C25.7518 1.65341 26.4961 2.44318 27.0188 3.46023C27.5415 4.47159 27.8029 5.65341 27.8029 7.00568C27.8029 8.34659 27.5415 9.52557 27.0188 10.5426C26.4961 11.554 25.7518 12.3437 24.7859 12.9119C23.8256 13.4744 22.6836 13.7557 21.3597 13.7557ZM21.3768 10.9432C21.979 10.9432 22.4819 10.7727 22.8853 10.4318C23.2887 10.0852 23.5927 9.61364 23.7972 9.01705C24.0075 8.42045 24.1126 7.74148 24.1126 6.98011C24.1126 6.21875 24.0075 5.53977 23.7972 4.94318C23.5927 4.34659 23.2887 3.875 22.8853 3.52841C22.4819 3.18182 21.979 3.00852 21.3768 3.00852C20.7688 3.00852 20.2575 3.18182 19.8427 3.52841C19.4336 3.875 19.1239 4.34659 18.9137 4.94318C18.7092 5.53977 18.6069 6.21875 18.6069 6.98011C18.6069 7.74148 18.7092 8.42045 18.9137 9.01705C19.1239 9.61364 19.4336 10.0852 19.8427 10.4318C20.2575 10.7727 20.7688 10.9432 21.3768 10.9432ZM38.5586 7.92614V0.409091H42.1893V13.5H38.7035V11.1222H38.5671C38.2717 11.8892 37.7802 12.5057 37.0927 12.9716C36.4109 13.4375 35.5785 13.6705 34.5955 13.6705C33.7205 13.6705 32.9506 13.4716 32.2859 13.0739C31.6211 12.6761 31.1012 12.1108 30.7262 11.3778C30.3569 10.6449 30.1694 9.76705 30.1637 8.74432V0.409091H33.7944V8.09659C33.8001 8.86932 34.0075 9.48011 34.4165 9.92898C34.8256 10.3778 35.3739 10.6023 36.0614 10.6023C36.4989 10.6023 36.908 10.5028 37.2887 10.304C37.6694 10.0994 37.9762 9.7983 38.2092 9.40057C38.4478 9.00284 38.5643 8.51136 38.5586 7.92614Z" fill="white"/>
</svg>
