<?xml version="1.0" encoding="UTF-8" standalone="no"?>
<!DOCTYPE svg PUBLIC "-//W3C//DTD SVG 1.1//EN" "http://www.w3.org/Graphics/SVG/1.1/DTD/svg11.dtd">
<!-- Created with Vectornator (http://vectornator.io/) -->
<svg height="100%" stroke-miterlimit="10" style="fill-rule:nonzero;clip-rule:evenodd;stroke-linecap:round;stroke-linejoin:round;" version="1.1" viewBox="0 0 1024 1024" width="100%" xml:space="preserve" xmlns="http://www.w3.org/2000/svg" xmlns:vectornator="http://vectornator.io" xmlns:xlink="http://www.w3.org/1999/xlink">
<defs/>
<g id="Untitled" vectornator:layerName="Untitled">
<path d="M512 0C229.268 2.19717e-05 0 229.268 0 512C2.19717e-05 794.732 229.268 1024 512 1024C794.732 1024 1024 794.732 1024 512C1024 229.268 794.732 0 512 0ZM297.966 256.051C376.263 256.051 440.082 317.831 443.322 395.264L443.423 395.264L443.423 401.406L443.423 464.921L428.843 464.921L361.549 464.921L361.549 401.406L361.549 398.706L361.447 398.706C360.044 364.903 332.194 337.925 298.068 337.925C263.941 337.925 236.058 364.903 234.654 398.706L234.553 398.706L234.553 401.406L234.553 464.921L167.157 464.921L152.577 464.921L152.577 401.406L152.577 395.264L152.712 395.264C155.952 317.831 219.67 256.051 297.966 256.051ZM727.012 256.051C805.309 256.051 869.047 317.831 872.503 395.264L872.604 395.264L872.604 401.406L872.604 464.921L858.024 464.921L790.628 464.921L790.628 401.406L790.628 398.706L790.527 398.706C789.123 364.903 761.24 337.925 727.114 337.925C692.987 337.925 665.138 364.903 663.734 398.706L663.632 398.706L663.632 401.406L663.632 464.921L596.237 464.921L581.657 464.921L581.657 401.406L581.657 395.264L581.758 395.264C584.998 317.831 648.716 256.051 727.012 256.051ZM150.215 655.297L873.785 655.297C873.029 657.24 872.28 659.103 871.524 660.831C851.977 708.025 823.365 750.873 787.186 787.051C751.008 823.229 708.127 851.875 660.933 871.423C613.738 890.97 563.082 900.986 512 900.986C460.918 900.986 410.261 890.97 363.067 871.423C315.873 851.875 272.992 823.23 236.814 787.051C200.635 750.872 172.023 708.025 152.476 660.831C151.72 658.995 150.971 657.132 150.215 655.297Z" fill="#43ff01" fill-rule="nonzero" opacity="1" stroke="#43ff01" stroke-linecap="butt" stroke-linejoin="miter" stroke-width="0"/>
</g>
</svg>
