<svg width="65" height="41" viewBox="0 0 65 41" fill="none" xmlns="http://www.w3.org/2000/svg">
<rect x="2.5" y="2.5" width="60" height="36" rx="12.5" stroke="white" stroke-width="5"/>
<path d="M15.0458 29.4091C14.5856 29.4091 14.1538 29.3722 13.7504 29.2983C13.3526 29.2301 13.0231 29.142 12.7617 29.0341L13.5799 26.3239C14.006 26.4545 14.3896 26.5256 14.7305 26.5369C15.0771 26.5483 15.3754 26.4688 15.6254 26.2983C15.881 26.1278 16.0884 25.8381 16.2475 25.429L16.4606 24.875L11.7646 11.4091H15.5827L18.293 21.0227H18.4293L21.1651 11.4091H25.0089L19.9208 25.9148C19.6765 26.6193 19.3441 27.233 18.9237 27.7557C18.5089 28.2841 17.9833 28.6903 17.3469 28.9744C16.7106 29.2642 15.9435 29.4091 15.0458 29.4091ZM32.3597 24.7557C31.0359 24.7557 29.891 24.4744 28.9251 23.9119C27.9648 23.3437 27.2234 22.554 26.7006 21.5426C26.1779 20.5256 25.9165 19.3466 25.9165 18.0057C25.9165 16.6534 26.1779 15.4716 26.7006 14.4602C27.2234 13.4432 27.9648 12.6534 28.9251 12.0909C29.891 11.5227 31.0359 11.2386 32.3597 11.2386C33.6836 11.2386 34.8256 11.5227 35.7859 12.0909C36.7518 12.6534 37.4961 13.4432 38.0188 14.4602C38.5415 15.4716 38.8029 16.6534 38.8029 18.0057C38.8029 19.3466 38.5415 20.5256 38.0188 21.5426C37.4961 22.554 36.7518 23.3437 35.7859 23.9119C34.8256 24.4744 33.6836 24.7557 32.3597 24.7557ZM32.3768 21.9432C32.979 21.9432 33.4819 21.7727 33.8853 21.4318C34.2887 21.0852 34.5927 20.6136 34.7972 20.017C35.0075 19.4205 35.1126 18.7415 35.1126 17.9801C35.1126 17.2188 35.0075 16.5398 34.7972 15.9432C34.5927 15.3466 34.2887 14.875 33.8853 14.5284C33.4819 14.1818 32.979 14.0085 32.3768 14.0085C31.7688 14.0085 31.2575 14.1818 30.8427 14.5284C30.4336 14.875 30.1239 15.3466 29.9137 15.9432C29.7092 16.5398 29.6069 17.2188 29.6069 17.9801C29.6069 18.7415 29.7092 19.4205 29.9137 20.017C30.1239 20.6136 30.4336 21.0852 30.8427 21.4318C31.2575 21.7727 31.7688 21.9432 32.3768 21.9432ZM49.5586 18.9261V11.4091H53.1893V24.5H49.7035V22.1222H49.5671C49.2717 22.8892 48.7802 23.5057 48.0927 23.9716C47.4109 24.4375 46.5785 24.6705 45.5955 24.6705C44.7205 24.6705 43.9506 24.4716 43.2859 24.0739C42.6211 23.6761 42.1012 23.1108 41.7262 22.3778C41.3569 21.6449 41.1694 20.767 41.1637 19.7443V11.4091H44.7944V19.0966C44.8001 19.8693 45.0075 20.4801 45.4165 20.929C45.8256 21.3778 46.3739 21.6023 47.0614 21.6023C47.4989 21.6023 47.908 21.5028 48.2887 21.304C48.6694 21.0994 48.9762 20.7983 49.2092 20.4006C49.4478 20.0028 49.5643 19.5114 49.5586 18.9261Z" fill="white"/>
</svg>
