<?xml version="1.0" encoding="UTF-8" standalone="no"?>
<!DOCTYPE svg PUBLIC "-//W3C//DTD SVG 1.1//EN" "http://www.w3.org/Graphics/SVG/1.1/DTD/svg11.dtd">
<!-- Created with Vectornator (http://vectornator.io/) -->
<svg height="100%" stroke-miterlimit="10" style="fill-rule:nonzero;clip-rule:evenodd;stroke-linecap:round;stroke-linejoin:round;" version="1.1" viewBox="0 0 1080 1080" width="100%" xml:space="preserve" xmlns="http://www.w3.org/2000/svg" xmlns:vectornator="http://vectornator.io" xmlns:xlink="http://www.w3.org/1999/xlink">
<defs/>
<g id="Untitled" vectornator:layerName="Untitled">
<path d="M40 540C40 263.858 263.858 40 540 40C816.142 40 1040 263.858 1040 540C1040 816.142 816.142 1040 540 1040C263.858 1040 40 816.142 40 540Z" fill="none" opacity="1" stroke="#00d1ff" stroke-linecap="butt" stroke-linejoin="miter" stroke-width="80"/>
<path d="M186.73 680C187.447 681.812 188.18 683.618 188.926 685.42C199.857 711.81 213.702 736.819 230.161 760L849.839 760C866.298 736.819 880.143 711.81 891.074 685.42C891.82 683.618 892.553 681.812 893.27 680L186.73 680Z" fill="#00d1ff" fill-rule="evenodd" opacity="1" stroke="none"/>
<path d="M187 432L187 370L201.214 370L267 370L267 432L267 434.62L267.054 434.62C268.427 467.646 295.636 494 329 494C362.364 494 389.573 467.646 390.946 434.62L391 434.62L391 432L391 370L456.786 370L471 370L471 432L471 435L470.969 435C469.372 512.039 406.422 574 329 574C251.578 574 188.628 512.039 187.031 435L187 435L187 432Z" fill="#00d1ff" fill-rule="evenodd" opacity="1" stroke="none"/>
<path d="M608 432L608 370L622.214 370L688 370L688 432L688 434.62L688.054 434.62C689.427 467.646 716.636 494 750 494C783.364 494 810.573 467.646 811.946 434.62L812 434.62L812 432L812 370L877.786 370L892 370L892 432L892 435L891.969 435C890.372 512.039 827.422 574 750 574C672.578 574 609.628 512.039 608.031 435L608 435L608 432Z" fill="#00d1ff" fill-rule="evenodd" opacity="1" stroke="none"/>
</g>
</svg>
